<svg enable-background="new 0 0 24 24" viewBox="0 0 24 24" xmlns="http://www.w3.org/2000/svg"><path d="m16.05 10.28c.49.76.78 1.65.78 2.62 0 .07-.02.13-.02.19l-3.1-.72c-.36-.08-.71.14-.8.5-.08.36.14.71.5.8l3.15.73c-.33.99-.96 1.85-1.79 2.44l-1.47-3.03c-.16-.33-.56-.47-.89-.31s-.47.56-.31.89l1.48 3.05c-.5.18-1.03.29-1.59.29s-1.08-.11-1.58-.29l1.48-3.05c.16-.33.02-.73-.31-.89s-.73-.02-.89.31l-1.47 3.03c-.84-.59-1.47-1.45-1.8-2.45l3.16-.73c.36-.08.58-.44.5-.8s-.44-.58-.8-.5l-3.1.72c0-.07-.02-.13-.02-.2 0-.97.29-1.87.78-2.62l2.38 1.9c.12.1.27.15.41.15.2 0 .39-.09.52-.25.23-.29.18-.71-.11-.93l-2.32-1.86c.69-.61 1.55-1.01 2.51-1.15v2.88c0 .37.3.67.67.67s.67-.3.67-.67v-2.87c.96.13 1.81.54 2.51 1.15l-2.33 1.85c-.29.23-.33.65-.11.93.13.17.32.25.52.25.15 0 .29-.05.41-.15zm7.53 6.03c-.7.86-2.08 2.58-2.08 2.58l-2.07 2.58s-1.03 1.29-1.55 1.93c-.31.38-.71.59-1.2.59-1.56.01-4.68 0-4.68 0s0 0 0 0c-1.51 0-3.01-.01-4.52 0-.63.01-1.1-.23-1.47-.71-.6-.76-1.82-2.27-1.82-2.27l-1.99-2.47s-1.2-1.51-1.81-2.25c-.39-.48-.47-1-.33-1.59.38-1.62 1.13-4.88 1.13-4.88s.6-2.61.9-3.92c.12-.51.43-.86.9-1.08l8.26-3.95c.48-.23.97-.24 1.45-.01 2.19 1.05 6.58 3.14 6.58 3.14s1.07.52 1.61.77c.58.26.9.69 1.04 1.31.35 1.57 1.08 4.72 1.08 4.72s.63 2.74.94 4.11c.13.53-.04.99-.37 1.4zm-3.43-2.45-2.02-.47c.01-.17.03-.33.03-.5 0-1.28-.39-2.47-1.06-3.46l1.74-1.39c.29-.23.33-.65.11-.93-.23-.29-.65-.34-.93-.11l-1.78 1.42c-.95-.91-2.19-1.51-3.57-1.66v-2.37c0-.37-.3-.67-.67-.67s-.67.3-.67.67v2.37c-1.38.16-2.62.76-3.57 1.67l-1.78-1.42c-.28-.23-.7-.18-.93.11s-.18.71.11.93l1.74 1.38c-.67.99-1.06 2.18-1.06 3.46 0 .17.01.34.03.5l-2.01.47c-.36.08-.58.44-.5.8.06.31.34.52.64.52.05 0 .1-.01.15-.02l1.95-.45c.43 1.39 1.34 2.57 2.53 3.35l-.83 1.7c-.16.33-.02.73.31.89.09.05.19.07.29.07.25 0 .48-.14.6-.37l.82-1.68c.68.26 1.41.4 2.17.4.77 0 1.5-.15 2.18-.41l.82 1.68c.12.24.35.37.6.37.1 0 .2-.02.29-.07.33-.16.47-.56.31-.89l-.83-1.7c1.19-.78 2.1-1.96 2.53-3.35l1.96.46c.05.01.1.02.15.02.3 0 .58-.21.65-.51.08-.36-.14-.72-.5-.81z"/></svg>